<svg version="1.1" id="Layer_1" xmlns="http://www.w3.org/2000/svg" xmlns:xlink="http://www.w3.org/1999/xlink" x="0px" y="0px"
	 width="100%" viewBox="0 0 600 600" enable-background="new 0 0 600 600" xml:space="preserve">
<path fill="#F8F8F8" opacity="1.000000" stroke="none" 
	d="
M1.000000,230.000000 
	C1.000000,153.333359 1.000000,77.166710 1.000000,1.000051 
	C200.999924,1.000034 400.999847,1.000034 600.999817,1.000017 
	C600.999878,200.999863 600.999878,400.999725 600.999939,600.999634 
	C401.000214,600.999756 201.000397,600.999756 1.000302,600.999878 
	C1.000000,477.500000 1.000000,354.000000 1.000000,230.000000 
M168.292404,103.100227 
	C167.847931,104.060799 167.403458,105.021362 166.418427,106.388420 
	C163.274063,111.246498 160.129700,116.104584 156.355881,121.077705 
	C155.927505,121.718193 155.499115,122.358681 155.016907,123.782211 
	C153.338501,127.833313 151.660080,131.884415 149.238327,135.981369 
	C148.140884,136.646057 147.043442,137.310745 145.208328,137.980499 
	C144.471497,138.014084 143.734680,138.047668 142.209854,138.039566 
	C139.326736,138.501160 135.954391,138.059250 134.153671,141.969055 
	C133.103668,142.002121 132.053665,142.035172 130.284012,142.109268 
	C126.833900,144.396423 123.383797,146.683578 119.194229,148.966843 
	C117.797195,149.333389 116.400169,149.699921 114.326187,150.103088 
	C113.534523,151.061630 112.742859,152.020157 111.300476,153.077835 
	C110.200317,153.726181 109.100159,154.374542 107.363350,155.096069 
	C106.893806,155.724625 106.424263,156.353180 105.285370,156.995285 
	C104.528023,157.344849 103.770676,157.694412 102.303589,158.105072 
	C101.507919,159.389481 100.712250,160.673904 99.194687,161.990753 
	C94.129692,166.991608 89.064690,171.992447 83.261963,177.020798 
	C82.506584,178.013870 81.751205,179.006927 80.760078,180.421173 
	C80.561119,180.685577 80.307755,180.878586 79.317154,181.113220 
	C78.874054,182.074280 78.430962,183.035339 78.000916,183.999741 
	C78.000916,183.999741 77.992706,183.987701 77.309036,184.108841 
	C76.860687,185.075745 76.412331,186.042664 75.633301,187.612259 
	C74.758316,189.741653 73.883331,191.871063 73.000610,194.000610 
	C73.000610,194.000610 73.003159,194.008438 72.403030,193.991409 
	C71.929604,194.308182 71.456177,194.624954 70.274513,195.101517 
	C69.135101,198.040833 67.995682,200.980164 66.377823,204.168442 
	C65.918747,204.448471 65.459671,204.728500 64.314720,205.136948 
	C63.866673,207.096130 63.418629,209.055328 62.890251,211.687363 
	C62.567158,212.757492 62.244064,213.827606 61.320335,215.267258 
	C60.269119,216.527847 58.750328,217.628296 58.253559,219.078781 
	C56.706963,223.594559 55.274490,228.189270 54.355877,232.863083 
	C53.911549,235.123749 54.714348,237.629517 54.940105,240.644150 
	C54.939007,241.057434 54.937904,241.470734 54.376438,242.017685 
	C54.231537,242.687561 54.086632,243.357422 53.940231,244.894119 
	C53.615978,248.240646 53.291725,251.587189 52.197025,255.177292 
	C52.007050,261.266296 51.804039,267.355042 51.683952,273.445404 
	C51.679947,273.648285 52.515331,273.867737 52.963486,274.930267 
	C53.325500,278.957977 53.687519,282.985657 54.026932,287.796112 
	C54.661613,289.237732 55.296295,290.679352 55.926674,292.931641 
	C55.940334,294.282898 55.953995,295.634125 55.496574,297.375824 
	C55.673874,298.246094 55.851177,299.116364 56.091263,300.729431 
	C57.183025,304.031891 58.391151,307.301086 59.345787,310.642700 
	C62.884224,323.028809 69.714043,333.671967 76.630814,344.336334 
	C78.202774,346.759979 78.919632,350.212494 78.829994,353.154907 
	C78.497215,364.079590 77.366501,374.981506 77.090683,385.906006 
	C76.718475,400.648285 79.763054,414.695526 85.065193,428.585785 
	C89.241814,439.527557 94.026878,450.211853 101.187798,459.086395 
	C109.232994,469.056885 118.977509,477.845459 128.858505,486.099915 
	C142.738205,497.694885 159.350464,504.105133 176.882645,508.102844 
	C180.093536,508.834991 183.367294,509.462433 186.644028,509.703918 
	C197.697037,510.518555 208.824921,512.122437 219.802826,511.448364 
	C226.020630,511.066498 230.525940,512.352783 234.610657,516.183472 
	C249.172012,529.839233 266.226318,538.747620 285.486267,543.696533 
	C298.170685,546.955872 311.028046,549.086670 324.118469,548.900757 
	C331.787720,548.791931 339.487488,547.985535 347.091248,546.910828 
	C354.635834,545.844421 362.382080,544.899353 369.486755,542.355957 
	C378.377441,539.173218 386.951782,534.853516 395.197876,530.200806 
	C402.221436,526.237976 409.009888,521.601196 415.120605,516.352478 
	C420.879883,511.405579 426.342834,505.769684 430.636108,499.540863 
	C437.038666,490.251892 442.156738,480.087036 448.136047,470.490936 
	C449.875000,467.700012 452.250214,464.610168 455.088562,463.327423 
	C464.342041,459.145569 474.370972,456.550659 483.326019,451.863495 
	C503.824921,441.134216 519.096436,424.425964 530.576843,404.778839 
	C536.454834,394.719513 539.821655,383.059326 543.413574,371.831604 
	C547.853271,357.953827 548.756470,343.454224 547.856628,328.979645 
	C547.369934,321.150635 545.863342,313.351318 544.340759,305.632507 
	C543.353027,300.624969 540.897766,295.875397 540.167725,290.854950 
	C538.522827,279.544647 532.180908,270.626953 525.988281,261.703430 
	C522.862061,257.198486 519.517700,252.652466 520.549255,247.299545 
	C523.763000,230.622879 523.285583,214.062164 521.028259,197.361832 
	C518.753967,180.537186 513.869690,164.706696 503.836517,150.884293 
	C497.334015,141.925964 490.446564,133.201965 483.146179,124.886955 
	C479.494781,120.728065 474.606110,117.622971 470.134125,114.229622 
	C467.577423,112.289642 464.733673,110.727989 461.921204,108.280739 
	C461.449677,107.646515 461.112823,106.686531 460.486237,106.427536 
	C452.677551,103.200043 444.826813,100.074318 436.870422,96.255928 
	C435.914825,95.836983 434.959259,95.418037 433.249237,95.006638 
	C432.494598,94.988304 431.739929,94.969971 430.867279,94.263298 
	C428.915131,93.831390 426.963013,93.399483 424.335815,92.980919 
	C423.886414,92.959778 423.436981,92.938644 422.893219,92.294205 
	C422.247375,91.867424 421.601501,91.440636 420.307678,91.031853 
	C419.875610,91.027176 419.443512,91.022491 418.524963,90.472496 
	C416.023254,90.304527 413.521515,90.136559 410.213928,89.989594 
	C409.139496,89.972115 408.065033,89.954628 406.874054,89.167572 
	C405.543579,88.446304 404.229095,87.137871 402.880005,87.101219 
	C395.397736,86.897934 387.905151,86.920761 380.421234,87.091476 
	C379.269501,87.117744 378.144440,88.311310 376.156525,88.996864 
	C372.452118,89.489967 369.866638,87.862099 366.831970,85.644440 
	C357.332825,78.702675 347.522736,72.115639 337.403290,66.116135 
	C329.514374,61.439045 321.057007,57.902279 311.695160,56.595692 
	C301.861237,55.223217 292.228607,52.000942 282.379883,51.235500 
	C266.848511,50.028397 251.438919,52.478313 236.573334,57.047203 
	C228.160080,59.633003 220.175308,63.612961 211.274368,66.985504 
	C210.133469,67.961449 208.992569,68.937401 207.117874,69.950424 
	C200.744644,74.292976 194.371414,78.635536 187.260590,83.008514 
	C186.489853,83.998756 185.719116,84.989006 184.514084,86.483620 
	C182.009140,88.651451 179.504181,90.819283 176.293808,93.074303 
	C175.179749,94.714775 174.065704,96.355247 172.697433,98.505119 
	C172.131073,98.991104 171.564713,99.477089 170.315292,100.088470 
	C169.864914,101.052444 169.414551,102.016426 169.003433,102.988327 
	C169.003433,102.988327 168.968170,102.964584 168.292404,103.100227 
z"/>
<path fill="#FAF9FB" opacity="1.000000" stroke="none" 
	d="
M425.010864,92.967575 
	C426.963013,93.399483 428.915131,93.831390 430.967773,94.964073 
	C433.350098,97.397522 435.432343,99.531548 437.952545,100.784828 
	C444.533936,104.057755 451.307037,106.945244 458.301971,110.150993 
	C467.393646,117.081673 477.078796,122.971603 484.780609,130.810242 
	C497.755890,144.015976 506.860535,160.049652 512.694092,177.691574 
	C519.947815,199.628632 521.713928,222.000229 517.324158,244.822021 
	C516.498535,249.114212 516.080505,253.587891 519.105896,257.745697 
	C525.325806,266.293884 530.915161,275.183655 534.709045,285.218018 
	C542.013245,304.536774 545.482788,324.209656 544.131042,344.987366 
	C542.743591,366.314941 536.734741,385.891022 526.340515,404.442230 
	C518.180786,419.005493 506.693787,430.552948 493.909302,440.713928 
	C481.495789,450.580078 466.866699,456.500061 451.670868,461.024658 
	C449.319519,461.724762 446.905518,463.950928 445.618042,466.122162 
	C443.019409,470.504639 441.123291,475.311188 439.029358,479.984039 
	C433.218811,492.950989 423.349152,502.911957 413.513672,512.566162 
	C403.346832,522.545715 391.079773,529.823364 377.702515,535.235657 
	C361.027069,541.982361 343.668243,545.986816 325.887848,545.620850 
	C312.481293,545.344910 298.929321,542.928223 285.813416,539.871277 
	C265.600189,535.160034 248.257401,524.571411 232.942123,510.578125 
	C231.310989,509.087769 228.610229,508.149628 226.369537,508.077454 
	C222.095367,507.939850 217.758255,509.136139 213.513504,508.837372 
	C204.979431,508.236755 196.436874,507.326660 187.996918,505.940796 
	C179.725189,504.582581 171.316360,503.234711 163.429214,500.534302 
	C147.992783,495.249176 133.721024,487.586243 121.754433,476.186646 
	C111.757637,466.663605 102.659164,456.444489 96.043900,444.168091 
	C89.537918,432.094543 84.949356,419.318054 82.279869,405.944489 
	C78.803017,388.526215 78.831055,370.877197 82.457298,353.561676 
	C83.524445,348.466003 82.293449,345.247406 79.791946,341.881683 
	C63.284481,319.671143 55.785194,294.399017 55.239479,267.114655 
	C55.019188,256.100677 56.986012,245.042938 58.113953,233.665039 
	C60.178471,227.549759 62.086548,221.774582 64.021690,215.618744 
	C65.400246,211.501694 66.751732,207.765274 68.351524,203.826645 
	C69.103691,202.440720 69.607552,201.257019 70.404877,199.891541 
	C71.466614,197.809326 72.234886,195.908875 73.003159,194.008438 
	C73.003159,194.008438 73.000610,194.000610 73.321594,193.881378 
	C77.118088,189.203674 80.593597,184.645218 84.367432,179.922150 
	C89.701187,174.873276 94.771431,170.023834 99.733116,165.065750 
	C100.446869,164.352524 100.637604,163.115891 101.062820,162.102448 
	C101.055275,162.083405 101.056267,162.044647 101.353653,162.040649 
	C102.111465,161.705475 102.571892,161.374268 103.033669,161.038300 
	C103.035011,161.033539 103.059303,161.059372 103.414200,161.021790 
	C112.846069,155.990753 121.923035,150.997314 131.226654,145.901566 
	C131.736938,145.611389 131.955521,145.365662 132.484604,145.051529 
	C138.210022,143.328201 143.678253,141.901352 148.851044,139.760605 
	C150.894318,138.914993 152.730331,136.737076 153.882111,134.720978 
	C157.706482,128.026672 161.250748,121.167702 164.745438,114.292076 
	C166.073456,111.679260 166.975479,108.849899 168.066071,106.095093 
	C168.060471,106.070946 168.061218,106.024521 168.290131,105.942406 
	C168.801575,105.663658 168.971176,105.395569 169.047775,105.054138 
	C169.067734,105.052269 169.106079,105.069038 169.449463,105.031631 
	C171.574921,102.679230 173.357010,100.364243 175.380630,97.918106 
	C176.100449,97.242523 176.578735,96.698082 177.348999,95.985153 
	C180.764023,92.879066 183.887054,89.941467 187.243149,86.848640 
	C187.684540,86.189217 187.892868,85.685005 188.403076,85.011932 
	C195.620529,80.686592 202.554428,76.559692 209.414825,72.313980 
	C209.928650,71.995987 209.916870,70.828697 210.383881,69.939941 
	C211.078140,69.572472 211.537918,69.321266 212.389801,69.060959 
	C215.488998,67.907745 218.178787,66.720497 220.906097,65.626778 
	C235.231171,59.882084 250.237656,56.663265 265.481384,55.204655 
	C283.672485,53.464024 301.734985,56.202091 318.925812,61.839798 
	C333.184357,66.515862 346.958130,73.005859 358.284210,83.522331 
	C365.171906,89.917686 372.296112,93.434181 382.875153,92.577232 
	C395.816193,91.528946 409.070770,94.454880 422.205475,95.456039 
	C423.072327,95.522110 424.072632,93.837746 425.010864,92.967575 
M146.938110,157.361679 
	C146.159760,157.657196 145.385651,157.964462 144.602463,158.246552 
	C90.805374,177.623734 59.664005,236.911743 74.274399,292.244537 
	C78.851280,309.578186 86.761307,325.196411 98.885498,338.516357 
	C101.105606,340.955414 101.590797,343.072998 100.773590,346.496735 
	C98.657471,355.362305 96.485962,364.370850 95.908165,373.422638 
	C91.250687,446.387024 158.011017,504.674133 231.500900,490.758667 
	C236.143402,489.879608 238.465744,491.516510 241.250229,494.417236 
	C299.384552,554.977722 400.426636,535.385376 431.171204,457.417053 
	C433.779785,450.801636 437.224487,447.862518 444.040649,446.087769 
	C525.701782,424.825653 556.116760,326.269623 500.861725,262.388519 
	C498.362274,259.498840 497.803558,257.068604 498.956390,253.436310 
	C515.046448,202.740768 491.091614,145.721909 443.720520,121.348373 
	C419.637085,108.956886 394.381561,104.666183 367.692902,109.809700 
	C364.096985,110.502716 361.699249,109.736786 358.986511,106.971458 
	C332.445984,79.916595 300.323395,66.816666 262.418579,71.511841 
	C218.584000,76.941559 187.256699,100.509338 169.510986,140.971634 
	C165.909332,149.183823 162.390579,155.019470 152.910217,155.479691 
	C151.142471,155.565491 149.416840,156.519104 146.938110,157.361679 
M427.289856,96.447205 
	C427.011658,96.712387 426.733459,96.977577 426.455231,97.242760 
	C426.565125,97.357925 426.764557,97.579254 426.772034,97.572960 
	C427.065460,97.325447 427.341461,97.057251 427.289856,96.447205 
z"/>
<path fill="#DBDBDB" opacity="1.000000" stroke="none" 
	d="
M57.957508,234.005112 
	C56.986012,245.042938 55.019188,256.100677 55.239479,267.114655 
	C55.785194,294.399017 63.284481,319.671143 79.791946,341.881683 
	C82.293449,345.247406 83.524445,348.466003 82.457298,353.561676 
	C78.831055,370.877197 78.803017,388.526215 82.279869,405.944489 
	C84.949356,419.318054 89.537918,432.094543 96.043900,444.168091 
	C102.659164,456.444489 111.757637,466.663605 121.754433,476.186646 
	C133.721024,487.586243 147.992783,495.249176 163.429214,500.534302 
	C171.316360,503.234711 179.725189,504.582581 187.996918,505.940796 
	C196.436874,507.326660 204.979431,508.236755 213.513504,508.837372 
	C217.758255,509.136139 222.095367,507.939850 226.369537,508.077454 
	C228.610229,508.149628 231.310989,509.087769 232.942123,510.578125 
	C248.257401,524.571411 265.600189,535.160034 285.813416,539.871277 
	C298.929321,542.928223 312.481293,545.344910 325.887848,545.620850 
	C343.668243,545.986816 361.027069,541.982361 377.702515,535.235657 
	C391.079773,529.823364 403.346832,522.545715 413.513672,512.566162 
	C423.349152,502.911957 433.218811,492.950989 439.029358,479.984039 
	C441.123291,475.311188 443.019409,470.504639 445.618042,466.122162 
	C446.905518,463.950928 449.319519,461.724762 451.670868,461.024658 
	C466.866699,456.500061 481.495789,450.580078 493.909302,440.713928 
	C506.693787,430.552948 518.180786,419.005493 526.340515,404.442230 
	C536.734741,385.891022 542.743591,366.314941 544.131042,344.987366 
	C545.482788,324.209656 542.013245,304.536774 534.709045,285.218018 
	C530.915161,275.183655 525.325806,266.293884 519.105896,257.745697 
	C516.080505,253.587891 516.498535,249.114212 517.324158,244.822021 
	C521.713928,222.000229 519.947815,199.628632 512.694092,177.691574 
	C506.860535,160.049652 497.755890,144.015976 484.780609,130.810242 
	C477.078796,122.971603 467.393646,117.081673 458.348206,109.834648 
	C459.403809,109.234497 460.711487,109.115250 462.019165,108.996002 
	C464.733673,110.727989 467.577423,112.289642 470.134125,114.229622 
	C474.606110,117.622971 479.494781,120.728065 483.146179,124.886955 
	C490.446564,133.201965 497.334015,141.925964 503.836517,150.884293 
	C513.869690,164.706696 518.753967,180.537186 521.028259,197.361832 
	C523.285583,214.062164 523.763000,230.622879 520.549255,247.299545 
	C519.517700,252.652466 522.862061,257.198486 525.988281,261.703430 
	C532.180908,270.626953 538.522827,279.544647 540.167725,290.854950 
	C540.897766,295.875397 543.353027,300.624969 544.340759,305.632507 
	C545.863342,313.351318 547.369934,321.150635 547.856628,328.979645 
	C548.756470,343.454224 547.853271,357.953827 543.413574,371.831604 
	C539.821655,383.059326 536.454834,394.719513 530.576843,404.778839 
	C519.096436,424.425964 503.824921,441.134216 483.326019,451.863495 
	C474.370972,456.550659 464.342041,459.145569 455.088562,463.327423 
	C452.250214,464.610168 449.875000,467.700012 448.136047,470.490936 
	C442.156738,480.087036 437.038666,490.251892 430.636108,499.540863 
	C426.342834,505.769684 420.879883,511.405579 415.120605,516.352478 
	C409.009888,521.601196 402.221436,526.237976 395.197876,530.200806 
	C386.951782,534.853516 378.377441,539.173218 369.486755,542.355957 
	C362.382080,544.899353 354.635834,545.844421 347.091248,546.910828 
	C339.487488,547.985535 331.787720,548.791931 324.118469,548.900757 
	C311.028046,549.086670 298.170685,546.955872 285.486267,543.696533 
	C266.226318,538.747620 249.172012,529.839233 234.610657,516.183472 
	C230.525940,512.352783 226.020630,511.066498 219.802826,511.448364 
	C208.824921,512.122437 197.697037,510.518555 186.644028,509.703918 
	C183.367294,509.462433 180.093536,508.834991 176.882645,508.102844 
	C159.350464,504.105133 142.738205,497.694885 128.858505,486.099915 
	C118.977509,477.845459 109.232994,469.056885 101.187798,459.086395 
	C94.026878,450.211853 89.241814,439.527557 85.065193,428.585785 
	C79.763054,414.695526 76.718475,400.648285 77.090683,385.906006 
	C77.366501,374.981506 78.497215,364.079590 78.829994,353.154907 
	C78.919632,350.212494 78.202774,346.759979 76.630814,344.336334 
	C69.714043,333.671967 62.884224,323.028809 59.345787,310.642700 
	C58.391151,307.301086 57.183025,304.031891 56.301640,300.169128 
	C56.330563,298.734314 56.149109,297.859863 55.967651,296.985382 
	C55.953995,295.634125 55.940334,294.282898 55.952061,292.144989 
	C55.334812,289.910004 54.692173,288.461700 54.049534,287.013367 
	C53.687519,282.985657 53.325500,278.957977 52.976116,274.028046 
	C52.981655,267.061798 52.974564,260.997742 52.967476,254.933716 
	C53.291725,251.587189 53.615978,248.240646 54.199936,244.279633 
	C54.618694,243.071426 54.777748,242.477722 54.936802,241.884018 
	C54.937904,241.470734 54.939007,241.057434 55.227943,240.081360 
	C56.329693,237.680756 57.143600,235.842941 57.957508,234.005112 
z"/>
<path fill="#DBDBDB" opacity="1.000000" stroke="none" 
	d="
M424.673340,92.974243 
	C424.072632,93.837746 423.072327,95.522110 422.205475,95.456039 
	C409.070770,94.454880 395.816193,91.528946 382.875153,92.577232 
	C372.296112,93.434181 365.171906,89.917686 358.284210,83.522331 
	C346.958130,73.005859 333.184357,66.515862 318.925812,61.839798 
	C301.734985,56.202091 283.672485,53.464024 265.481384,55.204655 
	C250.237656,56.663265 235.231171,59.882084 220.906097,65.626778 
	C218.178787,66.720497 215.488998,67.907745 212.390381,68.709358 
	C211.998428,67.899574 211.997986,67.432281 211.997528,66.964981 
	C220.175308,63.612961 228.160080,59.633003 236.573334,57.047203 
	C251.438919,52.478313 266.848511,50.028397 282.379883,51.235500 
	C292.228607,52.000942 301.861237,55.223217 311.695160,56.595692 
	C321.057007,57.902279 329.514374,61.439045 337.403290,66.116135 
	C347.522736,72.115639 357.332825,78.702675 366.831970,85.644440 
	C369.866638,87.862099 372.452118,89.489967 377.049377,88.994644 
	C387.625000,89.307327 397.307800,89.622238 406.990601,89.937149 
	C408.065033,89.954628 409.139496,89.972115 410.850769,90.257294 
	C413.995544,90.689262 416.503510,90.853539 419.011444,91.017807 
	C419.443512,91.022491 419.875610,91.027176 420.690430,91.335388 
	C421.711334,92.065117 422.349457,92.491318 422.987579,92.917511 
	C423.436981,92.938644 423.886414,92.959778 424.673340,92.974243 
z"/>
<path fill="#DBDBDB" opacity="1.000000" stroke="none" 
	d="
M168.071655,106.119240 
	C166.975479,108.849899 166.073456,111.679260 164.745438,114.292076 
	C161.250748,121.167702 157.706482,128.026672 153.882111,134.720978 
	C152.730331,136.737076 150.894318,138.914993 148.851044,139.760605 
	C143.678253,141.901352 138.210022,143.328201 132.207886,145.030151 
	C131.371445,145.013870 131.187241,145.008453 131.001526,145.001526 
	C131.000000,145.000000 130.996948,144.996948 130.997910,144.630096 
	C131.000473,143.531570 131.002075,142.799896 131.003662,142.068237 
	C132.053665,142.035172 133.103668,142.002121 134.924362,141.941010 
	C138.129318,140.635727 140.563583,139.358490 142.997849,138.081268 
	C143.734680,138.047668 144.471497,138.014084 145.933716,137.983765 
	C147.766632,137.303192 148.874146,136.619354 149.981659,135.935516 
	C151.660080,131.884415 153.338501,127.833313 155.356079,123.342148 
	C156.125259,122.255608 156.555298,121.609138 156.985321,120.962662 
	C160.129700,116.104584 163.274063,111.246498 166.968384,106.209045 
	C167.702774,106.059525 167.887207,106.089378 168.071655,106.119240 
z"/>
<path fill="#DFDFDF" opacity="1.000000" stroke="none" 
	d="
M461.970184,108.638374 
	C460.711487,109.115250 459.403809,109.234497 458.049927,109.670090 
	C451.307037,106.945244 444.533936,104.057755 437.952545,100.784828 
	C435.432343,99.531548 433.350098,97.397522 431.026794,95.308243 
	C431.739929,94.969971 432.494598,94.988304 433.681396,95.342941 
	C435.071320,96.093636 436.029083,96.508041 436.986877,96.922440 
	C444.826813,100.074318 452.677551,103.200043 460.486237,106.427536 
	C461.112823,106.686531 461.449677,107.646515 461.970184,108.638374 
z"/>
<path fill="#DCDCDC" opacity="1.000000" stroke="none" 
	d="
M58.113953,233.665039 
	C57.143600,235.842941 56.329693,237.680756 55.234138,239.771454 
	C54.714348,237.629517 53.911549,235.123749 54.355877,232.863083 
	C55.274490,228.189270 56.706963,223.594559 58.253559,219.078781 
	C58.750328,217.628296 60.269119,216.527847 61.798798,215.340576 
	C62.849712,215.609055 63.422169,215.804230 63.994629,215.999390 
	C62.086548,221.774582 60.178471,227.549759 58.113953,233.665039 
z"/>
<path fill="#DBDBDB" opacity="1.000000" stroke="none" 
	d="
M131.000000,146.003860 
	C121.923035,150.997314 112.846069,155.990753 103.393509,160.643768 
	C103.016388,159.550217 103.014862,158.797104 103.013336,158.043991 
	C103.770676,157.694412 104.528023,157.344849 105.943329,156.953506 
	C107.067528,156.282120 107.533768,155.652512 108.000000,155.022888 
	C109.100159,154.374542 110.200317,153.726181 111.998749,153.028061 
	C113.465721,152.007675 114.234428,151.037064 115.003136,150.066452 
	C116.400169,149.699921 117.797195,149.333389 119.927834,148.942139 
	C124.106606,147.610596 127.551773,146.303772 130.996948,144.996948 
	C130.996948,144.996948 131.000000,145.000000 131.000519,145.251709 
	C131.000717,145.670227 131.000366,145.837036 131.000000,146.003860 
z"/>
<path fill="#DBDBDB" opacity="1.000000" stroke="none" 
	d="
M210.149414,70.056213 
	C209.916870,70.828697 209.928650,71.995987 209.414825,72.313980 
	C202.554428,76.559692 195.620529,80.686592 188.367813,84.643845 
	C188.019852,83.955765 188.009003,83.466927 187.998169,82.978088 
	C194.371414,78.635536 200.744644,74.292976 207.868073,69.963852 
	C209.128647,70.003586 209.639023,70.029900 210.149414,70.056213 
z"/>
<path fill="#FAF9FB" opacity="1.000000" stroke="none" 
	d="
M406.932312,89.552361 
	C397.307800,89.622238 387.625000,89.307327 377.474609,88.978714 
	C378.144440,88.311310 379.269501,87.117744 380.421234,87.091476 
	C387.905151,86.920761 395.397736,86.897934 402.880005,87.101219 
	C404.229095,87.137871 405.543579,88.446304 406.932312,89.552361 
z"/>
<path fill="#DBDBDB" opacity="1.000000" stroke="none" 
	d="
M101.070374,162.121475 
	C100.637604,163.115891 100.446869,164.352524 99.733116,165.065750 
	C94.771431,170.023834 89.701187,174.873276 84.350235,179.900116 
	C84.034721,180.042694 83.999390,179.999390 83.999252,179.623718 
	C83.999313,178.496460 83.999504,177.744888 83.999695,176.993301 
	C89.064690,171.992447 94.129692,166.991608 99.845764,162.006790 
	C100.688011,162.055695 100.879189,162.088577 101.070374,162.121475 
z"/>
<path fill="#DBDBDB" opacity="1.000000" stroke="none" 
	d="
M84.051910,180.064728 
	C80.593597,184.645218 77.118088,189.203674 73.325462,193.881287 
	C73.883331,191.871063 74.758316,189.741653 76.091980,187.168335 
	C77.031342,185.812180 77.512024,184.899948 77.992706,183.987701 
	C77.992706,183.987701 78.000916,183.999741 78.284302,183.857391 
	C79.045120,182.810089 79.522568,181.905151 80.000000,181.000198 
	C80.307755,180.878586 80.561119,180.685577 81.253494,180.210602 
	C82.497734,179.999832 83.248558,179.999619 83.999390,179.999390 
	C83.999390,179.999390 84.034721,180.042694 84.051910,180.064728 
z"/>
<path fill="#DCDCDC" opacity="1.000000" stroke="none" 
	d="
M52.582253,255.055511 
	C52.974564,260.997742 52.981655,267.061798 52.974098,273.602631 
	C52.515331,273.867737 51.679947,273.648285 51.683952,273.445404 
	C51.804039,267.355042 52.007050,261.266296 52.582253,255.055511 
z"/>
<path fill="#DBDBDB" opacity="1.000000" stroke="none" 
	d="
M187.010101,87.003860 
	C183.887054,89.941467 180.764023,92.879066 177.329437,95.586945 
	C177.011688,94.567184 177.005463,93.777145 176.999222,92.987106 
	C179.504181,90.819283 182.009140,88.651451 184.998550,86.342331 
	C185.992050,86.468643 186.501068,86.736252 187.010101,87.003860 
z"/>
<path fill="#DBDBDB" opacity="1.000000" stroke="none" 
	d="
M64.021698,215.618744 
	C63.422169,215.804230 62.849712,215.609055 62.099113,215.155807 
	C62.244064,213.827606 62.567158,212.757492 63.217468,211.132935 
	C64.029984,208.721848 64.515289,206.865189 65.000595,205.008545 
	C65.459671,204.728500 65.918747,204.448471 66.929138,204.077026 
	C67.688042,204.000015 67.895638,204.014450 68.103226,204.028870 
	C66.751732,207.765274 65.400246,211.501694 64.021698,215.618744 
z"/>
<path fill="#DCDCDC" opacity="1.000000" stroke="none" 
	d="
M130.997910,144.630096 
	C127.551773,146.303772 124.106606,147.610596 120.297562,148.944092 
	C123.383797,146.683578 126.833900,144.396423 130.643829,142.088745 
	C131.002075,142.799896 131.000473,143.531570 130.997910,144.630096 
z"/>
<path fill="#DBDBDB" opacity="1.000000" stroke="none" 
	d="
M175.139099,98.049255 
	C173.357010,100.364243 171.574921,102.679230 169.410736,104.681549 
	C169.008484,103.900780 168.988327,103.432678 168.968170,102.964584 
	C168.968170,102.964584 169.003433,102.988327 169.280396,102.849564 
	C170.037689,101.794899 170.518021,100.878990 170.998352,99.963081 
	C171.564713,99.477089 172.131073,98.991104 173.189056,98.253624 
	C174.166824,98.017838 174.652954,98.033546 175.139099,98.049255 
z"/>
<path fill="#DCDCDC" opacity="1.000000" stroke="none" 
	d="
M68.351532,203.826645 
	C67.895638,204.014450 67.688042,204.000015 67.168358,203.952545 
	C67.995682,200.980164 69.135101,198.040833 70.607605,195.350830 
	C70.664268,197.091202 70.387840,198.582260 70.111412,200.073318 
	C69.607552,201.257019 69.103691,202.440720 68.351532,203.826645 
z"/>
<path fill="#DCDCDC" opacity="1.000000" stroke="none" 
	d="
M142.603851,138.060425 
	C140.563583,139.358490 138.129318,140.635727 135.318359,141.944031 
	C135.954391,138.059250 139.326736,138.501160 142.603851,138.060425 
z"/>
<path fill="#FAF9FB" opacity="1.000000" stroke="none" 
	d="
M418.768188,90.745155 
	C416.503510,90.853539 413.995544,90.689262 411.253723,90.246796 
	C413.521515,90.136559 416.023254,90.304527 418.768188,90.745155 
z"/>
<path fill="#DCDCDC" opacity="1.000000" stroke="none" 
	d="
M175.380630,97.918106 
	C174.652954,98.033546 174.166824,98.017838 173.316162,97.998924 
	C174.065704,96.355247 175.179749,94.714775 176.646515,93.030701 
	C177.005463,93.777145 177.011688,94.567184 177.037476,95.755432 
	C176.578735,96.698082 176.100449,97.242523 175.380630,97.918106 
z"/>
<path fill="#DCDCDC" opacity="1.000000" stroke="none" 
	d="
M64.657654,205.072739 
	C64.515289,206.865189 64.029984,208.721848 63.257629,210.796509 
	C63.418629,209.055328 63.866673,207.096130 64.657654,205.072739 
z"/>
<path fill="#DBDBDB" opacity="1.000000" stroke="none" 
	d="
M70.404877,199.891541 
	C70.387840,198.582260 70.664268,197.091202 70.961731,195.270935 
	C71.456177,194.624954 71.929604,194.308182 72.703094,193.999924 
	C72.234886,195.908875 71.466614,197.809326 70.404877,199.891541 
z"/>
<path fill="#DCDCDC" opacity="1.000000" stroke="none" 
	d="
M187.243149,86.848640 
	C186.501068,86.736252 185.992050,86.468643 185.215698,86.090149 
	C185.719116,84.989006 186.489853,83.998756 187.629379,82.993301 
	C188.009003,83.466927 188.019852,83.955765 188.065948,84.812706 
	C187.892868,85.685005 187.684540,86.189217 187.243149,86.848640 
z"/>
<path fill="#DCDCDC" opacity="1.000000" stroke="none" 
	d="
M210.383881,69.939941 
	C209.639023,70.029900 209.128647,70.003586 208.234955,69.945312 
	C208.992569,68.937401 210.133469,67.961449 211.635956,66.975243 
	C211.997986,67.432281 211.998428,67.899574 211.998291,68.718475 
	C211.537918,69.321266 211.078140,69.572472 210.383881,69.939941 
z"/>
<path fill="#DCDCDC" opacity="1.000000" stroke="none" 
	d="
M101.062820,162.102448 
	C100.879189,162.088577 100.688011,162.055695 100.206711,161.990570 
	C100.712250,160.673904 101.507919,159.389481 102.658463,158.074524 
	C103.014862,158.797104 103.016388,159.550217 103.038605,160.681351 
	C103.059303,161.059372 103.035011,161.033539 102.733398,161.046234 
	C101.973274,161.387512 101.514771,161.716080 101.056274,162.044647 
	C101.056267,162.044647 101.055275,162.083405 101.062820,162.102448 
z"/>
<path fill="#DCDCDC" opacity="1.000000" stroke="none" 
	d="
M54.038231,287.404724 
	C54.692173,288.461700 55.334812,289.910004 55.954212,291.739655 
	C55.296295,290.679352 54.661613,289.237732 54.038231,287.404724 
z"/>
<path fill="#DCDCDC" opacity="1.000000" stroke="none" 
	d="
M83.999252,179.623718 
	C83.248558,179.999619 82.497734,179.999832 81.371368,180.000031 
	C81.751205,179.006927 82.506584,178.013870 83.630829,177.007050 
	C83.999504,177.744888 83.999313,178.496460 83.999252,179.623718 
z"/>
<path fill="#DCDCDC" opacity="1.000000" stroke="none" 
	d="
M114.664658,150.084778 
	C114.234428,151.037064 113.465721,152.007675 112.324097,152.978485 
	C112.742859,152.020157 113.534523,151.061630 114.664658,150.084778 
z"/>
<path fill="#DCDCDC" opacity="1.000000" stroke="none" 
	d="
M149.609985,135.958450 
	C148.874146,136.619354 147.766632,137.303192 146.302551,137.981232 
	C147.043442,137.310745 148.140884,136.646057 149.609985,135.958450 
z"/>
<path fill="#DCDCDC" opacity="1.000000" stroke="none" 
	d="
M55.732117,297.180603 
	C56.149109,297.859863 56.330563,298.734314 56.270248,299.797729 
	C55.851177,299.116364 55.673874,298.246094 55.732117,297.180603 
z"/>
<path fill="#FAF9FB" opacity="1.000000" stroke="none" 
	d="
M436.928650,96.589188 
	C436.029083,96.508041 435.071320,96.093636 434.058594,95.339165 
	C434.959259,95.418037 435.914825,95.836983 436.928650,96.589188 
z"/>
<path fill="#DCDCDC" opacity="1.000000" stroke="none" 
	d="
M79.658585,181.056702 
	C79.522568,181.905151 79.045120,182.810089 78.277771,183.855713 
	C78.430962,183.035339 78.874054,182.074280 79.658585,181.056702 
z"/>
<path fill="#DCDCDC" opacity="1.000000" stroke="none" 
	d="
M170.656830,100.025772 
	C170.518021,100.878990 170.037689,101.794899 169.260773,102.845612 
	C169.414551,102.016426 169.864914,101.052444 170.656830,100.025772 
z"/>
<path fill="#DCDCDC" opacity="1.000000" stroke="none" 
	d="
M168.630280,103.032410 
	C168.988327,103.432678 169.008484,103.900780 169.067352,104.718956 
	C169.106079,105.069038 169.067734,105.052269 168.826660,105.147415 
	C168.308609,105.434669 168.133820,105.695320 168.061218,106.024521 
	C168.061218,106.024521 168.060471,106.070946 168.066071,106.095093 
	C167.887207,106.089378 167.702774,106.059525 167.238663,106.005798 
	C167.403458,105.021362 167.847931,104.060799 168.630280,103.032410 
z"/>
<path fill="#DCDCDC" opacity="1.000000" stroke="none" 
	d="
M77.650871,184.048279 
	C77.512024,184.899948 77.031342,185.812180 76.257317,186.867004 
	C76.412331,186.042664 76.860687,185.075745 77.650871,184.048279 
z"/>
<path fill="#FAF9FB" opacity="1.000000" stroke="none" 
	d="
M422.940399,92.605858 
	C422.349457,92.491318 421.711334,92.065117 421.014435,91.326385 
	C421.601501,91.440636 422.247375,91.867424 422.940399,92.605858 
z"/>
<path fill="#DCDCDC" opacity="1.000000" stroke="none" 
	d="
M107.681679,155.059479 
	C107.533768,155.652512 107.067528,156.282120 106.278000,156.946732 
	C106.424263,156.353180 106.893806,155.724625 107.681679,155.059479 
z"/>
<path fill="#DCDCDC" opacity="1.000000" stroke="none" 
	d="
M54.656620,241.950851 
	C54.777748,242.477722 54.618694,243.071426 54.200684,243.846222 
	C54.086632,243.357422 54.231537,242.687561 54.656620,241.950851 
z"/>
<path fill="#DCDCDC" opacity="1.000000" stroke="none" 
	d="
M156.670609,121.020187 
	C156.555298,121.609138 156.125259,122.255608 155.382980,122.950623 
	C155.499115,122.358681 155.927505,121.718193 156.670609,121.020187 
z"/>
<path fill="#552F5E" opacity="1.000000" stroke="none" 
	d="
M147.304947,157.216949 
	C149.416840,156.519104 151.142471,155.565491 152.910217,155.479691 
	C162.390579,155.019470 165.909332,149.183823 169.510986,140.971634 
	C187.256699,100.509338 218.584000,76.941559 262.418579,71.511841 
	C300.323395,66.816666 332.445984,79.916595 358.986511,106.971458 
	C361.699249,109.736786 364.096985,110.502716 367.692902,109.809700 
	C394.381561,104.666183 419.637085,108.956886 443.720520,121.348373 
	C491.091614,145.721909 515.046448,202.740768 498.956390,253.436310 
	C497.803558,257.068604 498.362274,259.498840 500.861725,262.388519 
	C556.116760,326.269623 525.701782,424.825653 444.040649,446.087769 
	C437.224487,447.862518 433.779785,450.801636 431.171204,457.417053 
	C400.426636,535.385376 299.384552,554.977722 241.250229,494.417236 
	C238.465744,491.516510 236.143402,489.879608 231.500900,490.758667 
	C158.011017,504.674133 91.250687,446.387024 95.908165,373.422638 
	C96.485962,364.370850 98.657471,355.362305 100.773590,346.496735 
	C101.590797,343.072998 101.105606,340.955414 98.885498,338.516357 
	C86.761307,325.196411 78.851280,309.578186 74.274399,292.244537 
	C59.664005,236.911743 90.805374,177.623734 144.602463,158.246552 
	C145.385651,157.964462 146.159760,157.657196 147.304947,157.216949 
M137.939392,334.030151 
	C139.026810,334.617401 140.114227,335.204651 141.730865,336.095612 
	C142.412338,336.539154 143.093811,336.982697 143.941086,338.042969 
	C144.693253,338.292236 145.445435,338.541534 146.746231,339.055603 
	C147.431274,339.490814 148.116333,339.926025 149.004135,340.958649 
	C149.748459,341.220825 150.492798,341.483032 151.871307,342.022278 
	C156.184296,344.460907 160.497299,346.899506 164.995346,349.947937 
	C165.732040,350.227051 166.468735,350.506165 167.812927,351.045715 
	C169.139954,351.822174 170.466965,352.598633 171.989304,353.973328 
	C172.718048,354.255219 173.446808,354.537109 174.550247,354.958435 
	C174.550247,354.958435 174.900269,355.151703 175.056778,355.807220 
	C175.821381,356.051147 176.585983,356.295105 177.874542,356.721100 
	C178.195404,356.902893 178.516251,357.084717 178.998322,357.921173 
	C180.393005,358.551178 181.787689,359.181183 183.745056,360.041992 
	C184.439529,360.460144 185.134003,360.878265 185.987488,361.930542 
	C186.740738,362.194763 187.494003,362.458984 188.780502,363.007690 
	C189.472305,363.419006 190.164108,363.830353 191.024918,364.874786 
	C191.787735,365.122009 192.550552,365.369202 193.834015,365.810944 
	C194.159119,365.987091 194.484222,366.163208 194.972290,366.954041 
	C195.709030,367.239716 196.445770,367.525391 197.788437,368.080719 
	C199.119049,368.858734 200.449661,369.636749 201.956940,371.026001 
	C202.699463,371.286713 203.441986,371.547455 204.726395,372.077576 
	C205.438660,372.455963 206.150925,372.834320 207.008240,373.869507 
	C209.043808,374.876251 211.079361,375.882996 213.487778,377.062286 
	C213.487778,377.062286 213.836090,377.280182 214.008972,377.936401 
	C215.425507,378.526581 216.842041,379.116760 218.856293,379.977570 
	C220.180710,380.745697 221.505127,381.513855 222.989853,382.936676 
	C224.398636,383.548309 225.807404,384.159943 227.767975,385.017975 
	C228.463181,385.425201 229.158371,385.832428 230.029114,386.889343 
	C231.644699,387.629333 233.260284,388.369354 235.450272,389.213013 
	C235.642899,389.240417 235.835526,389.267822 236.465729,389.719910 
	C238.363419,388.569946 240.261108,387.419983 242.673843,385.952545 
	C243.367874,385.543396 244.061905,385.134277 245.438034,384.909119 
	C246.674347,384.017700 247.910675,383.126282 249.701645,381.818634 
	C252.745590,380.155914 255.789520,378.493195 259.523407,376.925690 
	C260.727142,376.021393 261.930908,375.117096 263.667999,373.924835 
	C264.384216,373.551819 265.100464,373.178802 266.422882,372.965973 
	C267.031036,372.477142 267.639221,371.988312 268.730103,371.108795 
	C269.447205,370.701324 270.164307,370.293854 271.630035,369.922943 
	C274.125977,367.987610 273.959625,366.762390 270.081665,366.058502 
	C268.088959,364.987122 266.096252,363.915741 263.962860,362.193573 
	C263.208923,361.914093 262.455017,361.634613 261.073029,361.057312 
	C258.907196,359.816528 256.747498,358.564819 254.574554,357.336639 
	C226.339386,341.377350 198.108505,325.410461 169.858658,309.477203 
	C165.946609,307.270752 163.661652,304.393402 163.683548,299.555115 
	C163.839539,265.096924 163.837082,230.638000 163.883331,196.179306 
	C163.884674,195.180557 163.965149,194.169449 163.841660,193.185059 
	C163.158173,187.736618 159.244812,185.408783 154.325027,187.481155 
	C124.522743,200.034805 103.700645,231.614319 103.665215,263.827728 
	C103.635757,290.616272 114.020317,312.531311 133.940979,330.882355 
	C135.007385,331.543304 136.073776,332.204254 137.468903,333.120789 
	C137.468903,333.120789 137.782928,333.394226 137.939392,334.030151 
M361.057037,182.951553 
	C365.296234,184.020325 370.009552,184.237900 373.699249,186.293182 
	C401.922607,202.014511 429.907990,218.162567 458.080719,233.975983 
	C461.666718,235.988831 465.907806,236.834625 470.304016,238.382553 
	C473.026184,227.681076 472.228302,218.088196 470.386017,208.613495 
	C459.927826,154.827225 400.207611,122.990189 350.615723,146.593643 
	C317.457581,162.375427 286.024994,181.786392 253.886871,199.692902 
	C252.705536,200.351105 251.546997,202.265472 251.529861,203.609131 
	C251.366150,216.436676 251.441666,229.267456 251.495956,242.097092 
	C251.498428,242.680496 251.954010,243.261978 252.290863,244.064255 
	C253.364578,243.595566 254.292374,243.287537 255.125122,242.812820 
	C274.367828,231.843643 293.578217,220.817703 312.841309,209.884521 
	C328.615295,200.931641 344.449768,192.085236 361.057037,182.951553 
M250.949295,453.544556 
	C282.281952,436.272644 313.642395,419.050446 344.870209,401.591003 
	C346.540222,400.657288 347.967621,397.748932 348.021576,395.720306 
	C348.326996,384.236938 348.194244,372.741425 348.164490,361.250183 
	C348.160950,359.880981 347.876801,358.512512 347.673950,356.710754 
	C346.010895,357.448181 344.931213,357.820557 343.955109,358.375153 
	C310.972229,377.115295 277.931396,395.755402 245.079697,414.722992 
	C238.188232,418.701904 232.298615,418.529633 225.516830,414.598755 
	C197.149567,398.156372 168.639114,381.959290 140.075287,365.860138 
	C136.907562,364.074738 133.063583,363.489227 129.006332,362.176819 
	C128.485443,365.136139 127.994240,367.044159 127.833466,368.979675 
	C126.535019,384.611603 129.225983,399.549469 136.377777,413.510437 
	C157.834778,455.396637 205.960892,472.387756 250.949295,453.544556 
M372.968384,401.468323 
	C373.590302,409.205536 373.284454,415.965179 364.902771,420.508331 
	C335.931396,436.211609 307.236816,452.427917 278.534393,468.621796 
	C274.940430,470.649536 271.929443,473.710541 268.648346,476.292786 
	C268.661987,476.965637 268.675629,477.638489 268.689301,478.311340 
	C275.979462,482.437836 282.931519,487.381470 290.613861,490.560272 
	C347.240967,513.991638 410.199341,472.706238 410.875580,411.707245 
	C411.233887,379.391785 411.001892,347.068756 410.801849,314.750610 
	C410.789612,312.778412 409.198608,309.996399 407.509094,308.990631 
	C398.356110,303.541809 388.949768,298.517273 379.607910,293.388092 
	C377.792572,292.391388 375.876190,291.578644 372.965057,290.181091 
	C372.965057,327.667725 372.965057,364.072937 372.968384,401.468323 
M474.109863,391.587738 
	C510.264832,350.265472 498.797668,288.288330 452.697479,261.590179 
	C424.324097,245.158218 395.746063,229.078079 367.149902,213.036102 
	C365.409760,212.059921 362.260437,211.981430 360.511871,212.901398 
	C350.500244,218.168671 340.702728,223.844589 330.864716,229.438324 
	C329.520447,230.202667 328.355743,231.282806 326.577728,232.613556 
	C329.548828,234.365295 331.795135,235.738190 334.085632,237.032837 
	C365.816498,254.968155 397.542389,272.912445 429.301422,290.797729 
	C433.819092,293.341858 435.833130,296.880829 435.809570,302.164093 
	C435.660187,335.638428 435.819946,369.114532 435.550171,402.587402 
	C435.508942,407.706696 437.028076,411.477203 440.629486,414.959930 
	C453.475342,409.852356 464.489471,402.348633 474.109863,391.587738 
M226.366257,237.500153 
	C226.353668,222.838440 226.508881,208.173706 226.246384,193.516464 
	C226.140533,187.606018 228.500290,183.869781 233.553772,181.059937 
	C263.088928,164.637802 292.583740,148.141907 321.981201,131.475174 
	C325.252502,129.620529 327.822571,126.529076 330.979340,123.783806 
	C329.314117,122.205215 328.570312,121.314224 327.656525,120.661125 
	C306.035858,105.209045 282.240784,99.713264 256.173737,105.545563 
	C217.079376,114.292633 189.100311,148.482025 188.671707,188.452042 
	C188.325150,220.770569 188.620041,253.095688 188.479279,285.417206 
	C188.464905,288.719147 189.556808,290.573914 192.410278,292.083160 
	C201.384964,296.829987 210.237137,301.808014 219.151031,306.670288 
	C221.253311,307.817047 223.411728,308.860840 226.366241,310.372559 
	C226.366241,285.740906 226.366241,262.120514 226.366257,237.500153 
M308.324646,347.926117 
	C320.258850,341.311981 332.150238,334.618378 344.158569,328.141632 
	C347.024567,326.595856 348.177124,324.749634 348.139496,321.466431 
	C347.979156,307.478760 347.974548,293.487366 348.125519,279.499603 
	C348.159058,276.393890 347.026489,274.683136 344.395660,273.215973 
	C330.732025,265.595886 317.110138,257.897888 303.581573,250.041245 
	C300.738373,248.390060 298.533234,248.532227 295.766510,250.109589 
	C282.319153,257.776215 268.807495,265.332397 255.234573,272.774353 
	C252.548080,274.247314 251.507141,276.012695 251.537781,279.082428 
	C251.677353,293.070465 251.669388,307.061401 251.538513,321.049622 
	C251.510132,324.081970 252.469879,325.874451 255.184784,327.372925 
	C267.422821,334.127655 279.771729,340.731964 291.602417,348.152924 
	C297.420959,351.802704 302.268738,352.664429 308.324646,347.926117 
z"/>
<path fill="#F8F8F8" opacity="1.000000" stroke="none" 
	d="
M427.454773,96.619469 
	C427.341461,97.057251 427.065460,97.325447 426.772034,97.572960 
	C426.764557,97.579254 426.565125,97.357925 426.455231,97.242767 
	C426.733459,96.977577 427.011658,96.712387 427.454773,96.619469 
z"/>
<path fill="#DBDBDB" opacity="1.000000" stroke="none" 
	d="
M101.353653,162.040649 
	C101.514771,161.716080 101.973274,161.387512 102.732056,161.050995 
	C102.571892,161.374268 102.111465,161.705475 101.353653,162.040649 
z"/>
<path fill="#DCDCDC" opacity="1.000000" stroke="none" 
	d="
M131.226654,145.901566 
	C131.000366,145.837036 131.000717,145.670227 131.002045,145.253235 
	C131.187241,145.008453 131.371445,145.013870 131.832367,145.040680 
	C131.955521,145.365662 131.736938,145.611389 131.226654,145.901566 
z"/>
<path fill="#DBDBDB" opacity="1.000000" stroke="none" 
	d="
M168.290131,105.942406 
	C168.133820,105.695320 168.308609,105.434669 168.806702,105.149284 
	C168.971176,105.395569 168.801575,105.663658 168.290131,105.942406 
z"/>
<path fill="#FCFAFC" opacity="1.000000" stroke="none" 
	d="
M213.836090,377.280182 
	C213.836090,377.280182 213.487778,377.062286 213.220703,376.648407 
	C210.923477,375.227234 208.893326,374.219971 206.863190,373.212677 
	C206.150925,372.834320 205.438660,372.455963 204.366760,371.634338 
	C203.264832,370.932343 202.522537,370.673553 201.780258,370.414764 
	C200.449661,369.636749 199.119049,368.858734 197.401642,367.637329 
	C196.279663,366.909058 195.544510,366.624207 194.809341,366.339325 
	C194.484222,366.163208 194.159119,365.987091 193.458344,365.417786 
	C192.340408,364.763641 191.598160,364.502686 190.855911,364.241699 
	C190.164108,363.830353 189.472305,363.419006 188.414612,362.559265 
	C187.308655,361.839325 186.568573,361.567841 185.828491,361.296387 
	C185.134003,360.878265 184.439529,360.460144 183.367188,359.607361 
	C181.605240,358.537354 180.221176,357.901947 178.837097,357.266541 
	C178.516251,357.084717 178.195404,356.902893 177.485596,356.344971 
	C176.364532,355.696472 175.632401,355.424103 174.900269,355.151703 
	C174.900269,355.151703 174.550247,354.958435 174.278107,354.581726 
	C173.268661,353.928375 172.531326,353.651733 171.793991,353.375092 
	C170.466965,352.598633 169.139954,351.822174 167.426880,350.603607 
	C166.297318,349.887024 165.553818,349.612549 164.810303,349.338104 
	C160.497299,346.899506 156.184296,344.460907 151.465408,341.574524 
	C150.306793,340.871582 149.554092,340.616394 148.801392,340.361206 
	C148.116333,339.926025 147.431274,339.490814 146.379395,338.620300 
	C145.266815,337.932068 144.521057,337.679138 143.775299,337.426239 
	C143.093811,336.982697 142.412338,336.539154 141.389526,335.619873 
	C139.959763,334.560852 138.871338,333.977539 137.782928,333.394226 
	C137.782928,333.394226 137.468903,333.120789 137.255173,332.662964 
	C135.977020,331.544373 134.912613,330.883606 133.848190,330.222870 
	C114.020317,312.531311 103.635757,290.616272 103.665215,263.827728 
	C103.700645,231.614319 124.522743,200.034805 154.325027,187.481155 
	C159.244812,185.408783 163.158173,187.736618 163.841660,193.185059 
	C163.965149,194.169449 163.884674,195.180557 163.883331,196.179306 
	C163.837082,230.638000 163.839539,265.096924 163.683548,299.555115 
	C163.661652,304.393402 165.946609,307.270752 169.858658,309.477203 
	C198.108505,325.410461 226.339386,341.377350 254.574554,357.336639 
	C256.747498,358.564819 258.907196,359.816528 261.494324,361.502991 
	C262.644958,362.247253 263.374268,362.545807 264.103577,362.844360 
	C266.096252,363.915741 268.088959,364.987122 270.460907,366.567322 
	C270.853912,368.012878 270.867676,368.949646 270.881439,369.886414 
	C270.164307,370.293854 269.447205,370.701324 268.182861,371.207184 
	C267.029327,371.805634 266.423004,372.305725 265.816681,372.805786 
	C265.100464,373.178802 264.384216,373.551819 263.059357,374.027252 
	C261.244965,375.029938 260.039215,375.930206 258.833466,376.830475 
	C255.789520,378.493195 252.745590,380.155914 249.082825,381.992371 
	C247.227997,383.019104 245.991974,383.872131 244.755920,384.725159 
	C244.061905,385.134277 243.367874,385.543396 242.060608,386.061401 
	C239.640961,387.211884 237.834564,388.253571 236.028152,389.295227 
	C235.835526,389.267822 235.642899,389.240417 235.041565,388.848022 
	C233.039764,387.735229 231.446671,386.987427 229.853577,386.239655 
	C229.158371,385.832428 228.463181,385.425201 227.391022,384.576202 
	C225.619232,383.516937 224.224380,382.899475 222.829544,382.281982 
	C221.505127,381.513855 220.180710,380.745697 218.436417,379.533142 
	C216.623062,378.485840 215.229584,377.882996 213.836090,377.280182 
z"/>
<path fill="#FCFAFC" opacity="1.000000" stroke="none" 
	d="
M360.657227,183.071594 
	C344.449768,192.085236 328.615295,200.931641 312.841309,209.884521 
	C293.578217,220.817703 274.367828,231.843643 255.125122,242.812820 
	C254.292374,243.287537 253.364578,243.595566 252.290863,244.064255 
	C251.954010,243.261978 251.498428,242.680496 251.495956,242.097092 
	C251.441666,229.267456 251.366150,216.436676 251.529861,203.609131 
	C251.546997,202.265472 252.705536,200.351105 253.886871,199.692902 
	C286.024994,181.786392 317.457581,162.375427 350.615723,146.593643 
	C400.207611,122.990189 459.927826,154.827225 470.386017,208.613495 
	C472.228302,218.088196 473.026184,227.681076 470.304016,238.382553 
	C465.907806,236.834625 461.666718,235.988831 458.080719,233.975983 
	C429.907990,218.162567 401.922607,202.014511 373.699249,186.293182 
	C370.009552,184.237900 365.296234,184.020325 360.657227,183.071594 
z"/>
<path fill="#FCFAFC" opacity="1.000000" stroke="none" 
	d="
M250.602234,453.700378 
	C205.960892,472.387756 157.834778,455.396637 136.377777,413.510437 
	C129.225983,399.549469 126.535019,384.611603 127.833466,368.979675 
	C127.994240,367.044159 128.485443,365.136139 129.006332,362.176819 
	C133.063583,363.489227 136.907562,364.074738 140.075287,365.860138 
	C168.639114,381.959290 197.149567,398.156372 225.516830,414.598755 
	C232.298615,418.529633 238.188232,418.701904 245.079697,414.722992 
	C277.931396,395.755402 310.972229,377.115295 343.955109,358.375153 
	C344.931213,357.820557 346.010895,357.448181 347.673950,356.710754 
	C347.876801,358.512512 348.160950,359.880981 348.164490,361.250183 
	C348.194244,372.741425 348.326996,384.236938 348.021576,395.720306 
	C347.967621,397.748932 346.540222,400.657288 344.870209,401.591003 
	C313.642395,419.050446 282.281952,436.272644 250.602234,453.700378 
z"/>
<path fill="#FCFAFC" opacity="1.000000" stroke="none" 
	d="
M372.966736,400.973236 
	C372.965057,364.072937 372.965057,327.667725 372.965057,290.181091 
	C375.876190,291.578644 377.792572,292.391388 379.607910,293.388092 
	C388.949768,298.517273 398.356110,303.541809 407.509094,308.990631 
	C409.198608,309.996399 410.789612,312.778412 410.801849,314.750610 
	C411.001892,347.068756 411.233887,379.391785 410.875580,411.707245 
	C410.199341,472.706238 347.240967,513.991638 290.613861,490.560272 
	C282.931519,487.381470 275.979462,482.437836 268.689301,478.311340 
	C268.675629,477.638489 268.661987,476.965637 268.648346,476.292786 
	C271.929443,473.710541 274.940430,470.649536 278.534393,468.621796 
	C307.236816,452.427917 335.931396,436.211609 364.902771,420.508331 
	C373.284454,415.965179 373.590302,409.205536 372.966736,400.973236 
z"/>
<path fill="#FCFBFC" opacity="1.000000" stroke="none" 
	d="
M473.864532,391.842743 
	C464.489471,402.348633 453.475342,409.852356 440.629486,414.959930 
	C437.028076,411.477203 435.508942,407.706696 435.550171,402.587402 
	C435.819946,369.114532 435.660187,335.638428 435.809570,302.164093 
	C435.833130,296.880829 433.819092,293.341858 429.301422,290.797729 
	C397.542389,272.912445 365.816498,254.968155 334.085632,237.032837 
	C331.795135,235.738190 329.548828,234.365295 326.577728,232.613556 
	C328.355743,231.282806 329.520447,230.202667 330.864716,229.438324 
	C340.702728,223.844589 350.500244,218.168671 360.511871,212.901398 
	C362.260437,211.981430 365.409760,212.059921 367.149902,213.036102 
	C395.746063,229.078079 424.324097,245.158218 452.697479,261.590179 
	C498.797668,288.288330 510.264832,350.265472 473.864532,391.842743 
z"/>
<path fill="#FCFBFC" opacity="1.000000" stroke="none" 
	d="
M226.366241,238.000153 
	C226.366241,262.120514 226.366241,285.740906 226.366241,310.372559 
	C223.411728,308.860840 221.253311,307.817047 219.151031,306.670288 
	C210.237137,301.808014 201.384964,296.829987 192.410278,292.083160 
	C189.556808,290.573914 188.464905,288.719147 188.479279,285.417206 
	C188.620041,253.095688 188.325150,220.770569 188.671707,188.452042 
	C189.100311,148.482025 217.079376,114.292633 256.173737,105.545563 
	C282.240784,99.713264 306.035858,105.209045 327.656525,120.661125 
	C328.570312,121.314224 329.314117,122.205215 330.979340,123.783806 
	C327.822571,126.529076 325.252502,129.620529 321.981201,131.475174 
	C292.583740,148.141907 263.088928,164.637802 233.553772,181.059937 
	C228.500290,183.869781 226.140533,187.606018 226.246384,193.516464 
	C226.508881,208.173706 226.353668,222.838440 226.366241,238.000153 
z"/>
<path fill="#FDFCFD" opacity="1.000000" stroke="none" 
	d="
M307.991211,348.085083 
	C302.268738,352.664429 297.420959,351.802704 291.602417,348.152924 
	C279.771729,340.731964 267.422821,334.127655 255.184784,327.372925 
	C252.469879,325.874451 251.510132,324.081970 251.538513,321.049622 
	C251.669388,307.061401 251.677353,293.070465 251.537781,279.082428 
	C251.507141,276.012695 252.548080,274.247314 255.234573,272.774353 
	C268.807495,265.332397 282.319153,257.776215 295.766510,250.109589 
	C298.533234,248.532227 300.738373,248.390060 303.581573,250.041245 
	C317.110138,257.897888 330.732025,265.595886 344.395660,273.215973 
	C347.026489,274.683136 348.159058,276.393890 348.125519,279.499603 
	C347.974548,293.487366 347.979156,307.478760 348.139496,321.466431 
	C348.177124,324.749634 347.024567,326.595856 344.158569,328.141632 
	C332.150238,334.618378 320.258850,341.311981 307.991211,348.085083 
z"/>
<path fill="#9A87A0" opacity="1.000000" stroke="none" 
	d="
M236.246948,389.507568 
	C237.834564,388.253571 239.640961,387.211884 241.803085,386.220123 
	C240.261108,387.419983 238.363419,388.569946 236.246948,389.507568 
z"/>
<path fill="#9A87A0" opacity="1.000000" stroke="none" 
	d="
M206.935715,373.541077 
	C208.893326,374.219971 210.923477,375.227234 213.034271,376.562134 
	C211.079361,375.882996 209.043808,374.876251 206.935715,373.541077 
z"/>
<path fill="#9A87A0" opacity="1.000000" stroke="none" 
	d="
M229.941345,386.564514 
	C231.446671,386.987427 233.039764,387.735229 234.754364,388.796204 
	C233.260284,388.369354 231.644699,387.629333 229.941345,386.564514 
z"/>
<path fill="#9A87A0" opacity="1.000000" stroke="none" 
	d="
M271.255737,369.904663 
	C270.867676,368.949646 270.853912,368.012878 270.760864,366.721680 
	C273.959625,366.762390 274.125977,367.987610 271.255737,369.904663 
z"/>
<path fill="#9A87A0" opacity="1.000000" stroke="none" 
	d="
M178.917709,357.593872 
	C180.221176,357.901947 181.605240,358.537354 183.085846,359.491943 
	C181.787689,359.181183 180.393005,358.551178 178.917709,357.593872 
z"/>
<path fill="#9A87A0" opacity="1.000000" stroke="none" 
	d="
M259.178436,376.878082 
	C260.039215,375.930206 261.244965,375.029938 262.792664,374.171234 
	C261.930908,375.117096 260.727142,376.021393 259.178436,376.878082 
z"/>
<path fill="#9A87A0" opacity="1.000000" stroke="none" 
	d="
M213.922531,377.608276 
	C215.229584,377.882996 216.623062,378.485840 218.137558,379.397827 
	C216.842041,379.116760 215.425507,378.526581 213.922531,377.608276 
z"/>
<path fill="#9A87A0" opacity="1.000000" stroke="none" 
	d="
M245.096985,384.817139 
	C245.991974,383.872131 247.227997,383.019104 248.805511,382.200470 
	C247.910675,383.126282 246.674347,384.017700 245.096985,384.817139 
z"/>
<path fill="#9A87A0" opacity="1.000000" stroke="none" 
	d="
M222.909698,382.609314 
	C224.224380,382.899475 225.619232,383.516937 227.115128,384.453003 
	C225.807404,384.159943 224.398636,383.548309 222.909698,382.609314 
z"/>
<path fill="#9A87A0" opacity="1.000000" stroke="none" 
	d="
M137.861145,333.712219 
	C138.871338,333.977539 139.959763,334.560852 141.124908,335.468048 
	C140.114227,335.204651 139.026810,334.617401 137.861145,333.712219 
z"/>
<path fill="#9A87A0" opacity="1.000000" stroke="none" 
	d="
M133.894592,330.552612 
	C134.912613,330.883606 135.977020,331.544373 137.090805,332.535156 
	C136.073776,332.204254 135.007385,331.543304 133.894592,330.552612 
z"/>
<path fill="#9A87A0" opacity="1.000000" stroke="none" 
	d="
M266.119781,372.885864 
	C266.423004,372.305725 267.029327,371.805634 267.941528,371.402527 
	C267.639221,371.988312 267.031036,372.477142 266.119781,372.885864 
z"/>
<path fill="#9A87A0" opacity="1.000000" stroke="none" 
	d="
M201.868591,370.720398 
	C202.522537,370.673553 203.264832,370.932343 204.095795,371.499664 
	C203.441986,371.547455 202.699463,371.286713 201.868591,370.720398 
z"/>
<path fill="#9A87A0" opacity="1.000000" stroke="none" 
	d="
M194.890808,366.646667 
	C195.544510,366.624207 196.279663,366.909058 197.098663,367.502502 
	C196.445770,367.525391 195.709030,367.239716 194.890808,366.646667 
z"/>
<path fill="#9A87A0" opacity="1.000000" stroke="none" 
	d="
M190.940414,364.558228 
	C191.598160,364.502686 192.340408,364.763641 193.198029,365.320496 
	C192.550552,365.369202 191.787735,365.122009 190.940414,364.558228 
z"/>
<path fill="#9A87A0" opacity="1.000000" stroke="none" 
	d="
M264.033203,362.518951 
	C263.374268,362.545807 262.644958,362.247253 261.808350,361.651917 
	C262.455017,361.634613 263.208923,361.914093 264.033203,362.518951 
z"/>
<path fill="#9A87A0" opacity="1.000000" stroke="none" 
	d="
M185.907990,361.613464 
	C186.568573,361.567841 187.308655,361.839325 188.147995,362.416992 
	C187.494003,362.458984 186.740738,362.194763 185.907990,361.613464 
z"/>
<path fill="#9A87A0" opacity="1.000000" stroke="none" 
	d="
M174.978516,355.479462 
	C175.632401,355.424103 176.364532,355.696472 177.223633,356.253967 
	C176.585983,356.295105 175.821381,356.051147 174.978516,355.479462 
z"/>
<path fill="#9A87A0" opacity="1.000000" stroke="none" 
	d="
M171.891647,353.674194 
	C172.531326,353.651733 173.268661,353.928375 174.090775,354.512024 
	C173.446808,354.537109 172.718048,354.255219 171.891647,353.674194 
z"/>
<path fill="#9A87A0" opacity="1.000000" stroke="none" 
	d="
M164.902832,349.643005 
	C165.553818,349.612549 166.297318,349.887024 167.123108,350.473389 
	C166.468735,350.506165 165.732040,350.227051 164.902832,349.643005 
z"/>
<path fill="#9A87A0" opacity="1.000000" stroke="none" 
	d="
M148.902771,340.659912 
	C149.554092,340.616394 150.306793,340.871582 151.148315,341.435974 
	C150.492798,341.483032 149.748459,341.220825 148.902771,340.659912 
z"/>
<path fill="#9A87A0" opacity="1.000000" stroke="none" 
	d="
M143.858185,337.734619 
	C144.521057,337.679138 145.266815,337.932068 146.105087,338.487915 
	C145.445435,338.541534 144.693253,338.292236 143.858185,337.734619 
z"/>
</svg>